<mxfile host="65bd71144e">
    <diagram id="ywiEqcDVkYlDiBQOXgn1" name="第 1 页">
        <mxGraphModel dx="839" dy="590" grid="1" gridSize="10" guides="1" tooltips="1" connect="1" arrows="1" fold="1" page="1" pageScale="1" pageWidth="827" pageHeight="1169" math="0" shadow="0">
            <root>
                <mxCell id="0"/>
                <mxCell id="1" parent="0"/>
                <mxCell id="46" value="" style="group" vertex="1" connectable="0" parent="1">
                    <mxGeometry x="50" y="110" width="790" height="810" as="geometry"/>
                </mxCell>
                <mxCell id="2" value="判断锁文件存在 并获取其中的pid" style="rounded=1;whiteSpace=wrap;html=1;container=0;" parent="46" vertex="1">
                    <mxGeometry x="190" width="110" height="50" as="geometry"/>
                </mxCell>
                <mxCell id="3" value="pid还在运行:直接退出" style="rounded=1;whiteSpace=wrap;html=1;container=0;" parent="46" vertex="1">
                    <mxGeometry x="70" y="100" width="90" height="40" as="geometry"/>
                </mxCell>
                <mxCell id="4" value="pid不再运行:删除锁并继续" style="rounded=1;whiteSpace=wrap;html=1;container=0;" parent="46" vertex="1">
                    <mxGeometry x="200" y="100" width="90" height="40" as="geometry"/>
                </mxCell>
                <mxCell id="5" value="锁文件不存在:继续运行" style="rounded=1;whiteSpace=wrap;html=1;container=0;" parent="46" vertex="1">
                    <mxGeometry x="340" y="100" width="100" height="40" as="geometry"/>
                </mxCell>
                <mxCell id="7" value="" style="endArrow=classic;html=1;exitX=0.5;exitY=1;exitDx=0;exitDy=0;entryX=0.5;entryY=0;entryDx=0;entryDy=0;" parent="46" source="2" target="3" edge="1">
                    <mxGeometry width="50" height="50" relative="1" as="geometry">
                        <mxPoint x="420" y="220" as="sourcePoint"/>
                        <mxPoint x="470" y="170" as="targetPoint"/>
                        <Array as="points">
                            <mxPoint x="245" y="80"/>
                            <mxPoint x="115" y="80"/>
                        </Array>
                    </mxGeometry>
                </mxCell>
                <mxCell id="8" value="" style="endArrow=classic;html=1;exitX=0.5;exitY=1;exitDx=0;exitDy=0;entryX=0.5;entryY=0;entryDx=0;entryDy=0;" parent="46" source="2" target="4" edge="1">
                    <mxGeometry width="50" height="50" relative="1" as="geometry">
                        <mxPoint x="420" y="200" as="sourcePoint"/>
                        <mxPoint x="470" y="150" as="targetPoint"/>
                    </mxGeometry>
                </mxCell>
                <mxCell id="9" value="" style="endArrow=classic;html=1;exitX=0.5;exitY=1;exitDx=0;exitDy=0;entryX=0.5;entryY=0;entryDx=0;entryDy=0;" parent="46" source="2" target="5" edge="1">
                    <mxGeometry width="50" height="50" relative="1" as="geometry">
                        <mxPoint x="410" y="70" as="sourcePoint"/>
                        <mxPoint x="460" y="20" as="targetPoint"/>
                        <Array as="points">
                            <mxPoint x="245" y="80"/>
                            <mxPoint x="390" y="80"/>
                        </Array>
                    </mxGeometry>
                </mxCell>
                <mxCell id="10" value="筛选出status为no和start的任务" style="rounded=1;whiteSpace=wrap;html=1;container=0;" parent="46" vertex="1">
                    <mxGeometry x="260" y="180" width="110" height="40" as="geometry"/>
                </mxCell>
                <mxCell id="11" value="" style="endArrow=classic;html=1;exitX=0.5;exitY=1;exitDx=0;exitDy=0;entryX=0.5;entryY=0;entryDx=0;entryDy=0;" parent="46" source="4" target="10" edge="1">
                    <mxGeometry width="50" height="50" relative="1" as="geometry">
                        <mxPoint x="420" y="190" as="sourcePoint"/>
                        <mxPoint x="470" y="140" as="targetPoint"/>
                        <Array as="points">
                            <mxPoint x="245" y="160"/>
                            <mxPoint x="315" y="160"/>
                        </Array>
                    </mxGeometry>
                </mxCell>
                <mxCell id="12" value="" style="endArrow=classic;html=1;exitX=0.5;exitY=1;exitDx=0;exitDy=0;entryX=0.5;entryY=0;entryDx=0;entryDy=0;" parent="46" source="5" target="10" edge="1">
                    <mxGeometry width="50" height="50" relative="1" as="geometry">
                        <mxPoint x="460" y="210" as="sourcePoint"/>
                        <mxPoint x="510" y="160" as="targetPoint"/>
                        <Array as="points">
                            <mxPoint x="390" y="160"/>
                            <mxPoint x="315" y="160"/>
                        </Array>
                    </mxGeometry>
                </mxCell>
                <mxCell id="16" value="根据split_checl和split_status属性获得&lt;br&gt;初始状态" style="swimlane;fontStyle=0;childLayout=stackLayout;horizontal=1;startSize=30;horizontalStack=0;resizeParent=1;resizeParentMax=0;resizeLast=0;collapsible=1;marginBottom=0;whiteSpace=wrap;html=1;container=0;" parent="46" vertex="1">
                    <mxGeometry x="202.5" y="240" width="225" height="270" as="geometry"/>
                </mxCell>
                <mxCell id="20" value="" style="endArrow=classic;html=1;exitX=0.5;exitY=1;exitDx=0;exitDy=0;entryX=0.5;entryY=0;entryDx=0;entryDy=0;" parent="46" source="10" target="16" edge="1">
                    <mxGeometry width="50" height="50" relative="1" as="geometry">
                        <mxPoint x="420" y="190" as="sourcePoint"/>
                        <mxPoint x="470" y="140" as="targetPoint"/>
                    </mxGeometry>
                </mxCell>
                <mxCell id="27" value="判断是否为&lt;br&gt;&lt;span style=&quot;color: rgb(106, 135, 89); background-color: rgb(43, 43, 43); font-family: Consolas, &amp;quot;Courier New&amp;quot;, monospace; font-size: 14px;&quot;&gt;waitProcessedStatus&lt;br&gt;&lt;/span&gt;&lt;div style=&quot;color: rgb(169, 183, 198); background-color: rgb(43, 43, 43); font-family: Consolas, &amp;quot;Courier New&amp;quot;, monospace; font-size: 14px; line-height: 19px;&quot;&gt;&lt;span style=&quot;color: #6a8759;&quot;&gt;failedProcessedStatus&lt;/span&gt;&lt;/div&gt;&lt;div style=&quot;color: rgb(169, 183, 198); background-color: rgb(43, 43, 43); font-family: Consolas, &amp;quot;Courier New&amp;quot;, monospace; font-size: 14px; line-height: 19px;&quot;&gt;&lt;div style=&quot;line-height: 19px;&quot;&gt;&lt;span style=&quot;color: #6a8759;&quot;&gt;successProcessedStatus&lt;/span&gt;&lt;/div&gt;&lt;/div&gt;" style="rhombus;whiteSpace=wrap;html=1;container=0;" parent="46" vertex="1">
                    <mxGeometry x="150" y="560" width="330" height="130" as="geometry"/>
                </mxCell>
                <mxCell id="29" value="" style="endArrow=classic;html=1;exitX=0;exitY=0.5;exitDx=0;exitDy=0;entryX=0;entryY=0.5;entryDx=0;entryDy=0;" parent="46" source="27" target="22" edge="1">
                    <mxGeometry width="50" height="50" relative="1" as="geometry">
                        <mxPoint x="420" y="440" as="sourcePoint"/>
                        <mxPoint x="470" y="390" as="targetPoint"/>
                        <Array as="points">
                            <mxPoint x="90" y="625"/>
                            <mxPoint x="90" y="405"/>
                        </Array>
                    </mxGeometry>
                </mxCell>
                <mxCell id="31" value="" style="endArrow=classic;html=1;entryX=0.5;entryY=0;entryDx=0;entryDy=0;" parent="46" target="27" edge="1">
                    <mxGeometry width="50" height="50" relative="1" as="geometry">
                        <mxPoint x="315" y="510" as="sourcePoint"/>
                        <mxPoint x="580" y="490" as="targetPoint"/>
                    </mxGeometry>
                </mxCell>
                <mxCell id="34" value="结束" style="rounded=0;whiteSpace=wrap;html=1;container=0;" parent="46" vertex="1">
                    <mxGeometry x="255" y="750" width="120" height="60" as="geometry"/>
                </mxCell>
                <mxCell id="35" value="" style="endArrow=classic;html=1;exitX=0.5;exitY=1;exitDx=0;exitDy=0;entryX=0.5;entryY=0;entryDx=0;entryDy=0;" parent="46" source="27" target="34" edge="1">
                    <mxGeometry width="50" height="50" relative="1" as="geometry">
                        <mxPoint x="420" y="540" as="sourcePoint"/>
                        <mxPoint x="470" y="490" as="targetPoint"/>
                    </mxGeometry>
                </mxCell>
                <mxCell id="36" value="检查" style="swimlane;fontStyle=0;childLayout=stackLayout;horizontal=1;startSize=30;horizontalStack=0;resizeParent=1;resizeParentMax=0;resizeLast=0;collapsible=1;marginBottom=0;whiteSpace=wrap;html=1;container=0;" parent="46" vertex="1">
                    <mxGeometry x="610" y="120" width="180" height="180" as="geometry"/>
                </mxCell>
                <mxCell id="43" value="" style="endArrow=classic;html=1;exitX=0;exitY=0.5;exitDx=0;exitDy=0;entryX=0;entryY=0.5;entryDx=0;entryDy=0;" edge="1" parent="46" source="34" target="2">
                    <mxGeometry width="50" height="50" relative="1" as="geometry">
                        <mxPoint x="410" y="620" as="sourcePoint"/>
                        <mxPoint x="460" y="570" as="targetPoint"/>
                        <Array as="points">
                            <mxPoint x="50" y="780"/>
                            <mxPoint x="50" y="25"/>
                        </Array>
                    </mxGeometry>
                </mxCell>
                <mxCell id="44" value="定时" style="text;html=1;align=center;verticalAlign=middle;resizable=0;points=[];autosize=1;strokeColor=none;fillColor=none;container=0;" vertex="1" parent="46">
                    <mxGeometry y="380" width="50" height="30" as="geometry"/>
                </mxCell>
                <mxCell id="17" value="&lt;div style=&quot;color: rgb(169, 183, 198); background-color: rgb(43, 43, 43); font-family: Consolas, &amp;quot;Courier New&amp;quot;, monospace; font-size: 14px; line-height: 19px;&quot;&gt;&lt;span style=&quot;color: #6a8759;&quot;&gt;checkStatus&lt;/span&gt;&lt;/div&gt;" style="text;strokeColor=none;fillColor=none;align=left;verticalAlign=middle;spacingLeft=4;spacingRight=4;overflow=hidden;points=[[0,0.5],[1,0.5]];portConstraint=eastwest;rotatable=0;whiteSpace=wrap;html=1;container=0;" parent="46" vertex="1">
                    <mxGeometry x="202.5" y="270" width="225" height="30" as="geometry"/>
                </mxCell>
                <mxCell id="18" value="&lt;div style=&quot;color: rgb(169, 183, 198); background-color: rgb(43, 43, 43); font-family: Consolas, &amp;quot;Courier New&amp;quot;, monospace; font-size: 14px; line-height: 19px;&quot;&gt;&lt;span style=&quot;color: #6a8759;&quot;&gt;librarySplitDeliverStatus&lt;/span&gt;&lt;/div&gt;" style="text;strokeColor=none;fillColor=none;align=left;verticalAlign=middle;spacingLeft=4;spacingRight=4;overflow=hidden;points=[[0,0.5],[1,0.5]];portConstraint=eastwest;rotatable=0;whiteSpace=wrap;html=1;container=0;" parent="46" vertex="1">
                    <mxGeometry x="202.5" y="300" width="225" height="30" as="geometry"/>
                </mxCell>
                <mxCell id="21" value="&lt;div style=&quot;color: rgb(169, 183, 198); background-color: rgb(43, 43, 43); font-family: Consolas, &amp;quot;Courier New&amp;quot;, monospace; font-size: 14px; line-height: 19px;&quot;&gt;&lt;span style=&quot;color: #6a8759;&quot;&gt;librarySplitRunningStatus&lt;/span&gt;&lt;/div&gt;" style="text;strokeColor=none;fillColor=none;align=left;verticalAlign=middle;spacingLeft=4;spacingRight=4;overflow=hidden;points=[[0,0.5],[1,0.5]];portConstraint=eastwest;rotatable=0;whiteSpace=wrap;html=1;container=0;" parent="46" vertex="1">
                    <mxGeometry x="202.5" y="330" width="225" height="30" as="geometry"/>
                </mxCell>
                <mxCell id="19" value="&lt;div style=&quot;color: rgb(169, 183, 198); background-color: rgb(43, 43, 43); font-family: Consolas, &amp;quot;Courier New&amp;quot;, monospace; font-size: 14px; line-height: 19px;&quot;&gt;&lt;div style=&quot;line-height: 19px;&quot;&gt;&lt;span style=&quot;color: #6a8759;&quot;&gt;sampleSplitDeliverStatus&lt;/span&gt;&lt;/div&gt;&lt;/div&gt;" style="text;strokeColor=none;fillColor=none;align=left;verticalAlign=middle;spacingLeft=4;spacingRight=4;overflow=hidden;points=[[0,0.5],[1,0.5]];portConstraint=eastwest;rotatable=0;whiteSpace=wrap;html=1;container=0;" parent="46" vertex="1">
                    <mxGeometry x="202.5" y="360" width="225" height="30" as="geometry"/>
                </mxCell>
                <mxCell id="22" value="&lt;div style=&quot;color: rgb(169, 183, 198); background-color: rgb(43, 43, 43); font-family: Consolas, &amp;quot;Courier New&amp;quot;, monospace; font-size: 14px; line-height: 19px;&quot;&gt;&lt;div style=&quot;line-height: 19px;&quot;&gt;&lt;div style=&quot;line-height: 19px;&quot;&gt;&lt;span style=&quot;color: #6a8759;&quot;&gt;sampleSplitRunningStatus&lt;/span&gt;&lt;/div&gt;&lt;/div&gt;&lt;/div&gt;" style="text;strokeColor=none;fillColor=none;align=left;verticalAlign=middle;spacingLeft=4;spacingRight=4;overflow=hidden;points=[[0,0.5],[1,0.5]];portConstraint=eastwest;rotatable=0;whiteSpace=wrap;html=1;container=0;" parent="46" vertex="1">
                    <mxGeometry x="202.5" y="390" width="225" height="30" as="geometry"/>
                </mxCell>
                <mxCell id="23" value="&lt;div style=&quot;color: rgb(169, 183, 198); background-color: rgb(43, 43, 43); font-family: Consolas, &amp;quot;Courier New&amp;quot;, monospace; font-size: 14px; line-height: 19px;&quot;&gt;&lt;div style=&quot;line-height: 19px;&quot;&gt;&lt;div style=&quot;line-height: 19px;&quot;&gt;&lt;div style=&quot;line-height: 19px;&quot;&gt;&lt;span style=&quot;color: #6a8759;&quot;&gt;sampleQcDeliverStatus&lt;/span&gt;&lt;/div&gt;&lt;/div&gt;&lt;/div&gt;&lt;/div&gt;" style="text;strokeColor=none;fillColor=none;align=left;verticalAlign=middle;spacingLeft=4;spacingRight=4;overflow=hidden;points=[[0,0.5],[1,0.5]];portConstraint=eastwest;rotatable=0;whiteSpace=wrap;html=1;container=0;" parent="46" vertex="1">
                    <mxGeometry x="202.5" y="420" width="225" height="30" as="geometry"/>
                </mxCell>
                <mxCell id="24" value="&lt;div style=&quot;color: rgb(169, 183, 198); background-color: rgb(43, 43, 43); font-family: Consolas, &amp;quot;Courier New&amp;quot;, monospace; font-size: 14px; line-height: 19px;&quot;&gt;&lt;div style=&quot;line-height: 19px;&quot;&gt;&lt;div style=&quot;line-height: 19px;&quot;&gt;&lt;div style=&quot;line-height: 19px;&quot;&gt;&lt;div style=&quot;line-height: 19px;&quot;&gt;&lt;span style=&quot;color: #6a8759;&quot;&gt;sampleQcRunningStatus&lt;/span&gt;&lt;/div&gt;&lt;/div&gt;&lt;/div&gt;&lt;/div&gt;&lt;/div&gt;" style="text;strokeColor=none;fillColor=none;align=left;verticalAlign=middle;spacingLeft=4;spacingRight=4;overflow=hidden;points=[[0,0.5],[1,0.5]];portConstraint=eastwest;rotatable=0;whiteSpace=wrap;html=1;container=0;" parent="46" vertex="1">
                    <mxGeometry x="202.5" y="450" width="225" height="30" as="geometry"/>
                </mxCell>
                <mxCell id="25" value="&lt;div style=&quot;color: rgb(169, 183, 198); background-color: rgb(43, 43, 43); font-family: Consolas, &amp;quot;Courier New&amp;quot;, monospace; font-size: 14px; line-height: 19px;&quot;&gt;&lt;div style=&quot;line-height: 19px;&quot;&gt;&lt;div style=&quot;line-height: 19px;&quot;&gt;&lt;div style=&quot;line-height: 19px;&quot;&gt;&lt;div style=&quot;line-height: 19px;&quot;&gt;&lt;div style=&quot;line-height: 19px;&quot;&gt;&lt;span style=&quot;color: #6a8759;&quot;&gt;unknownStatus&lt;/span&gt;&lt;/div&gt;&lt;/div&gt;&lt;/div&gt;&lt;/div&gt;&lt;/div&gt;&lt;/div&gt;" style="text;strokeColor=none;fillColor=none;align=left;verticalAlign=middle;spacingLeft=4;spacingRight=4;overflow=hidden;points=[[0,0.5],[1,0.5]];portConstraint=eastwest;rotatable=0;whiteSpace=wrap;html=1;container=0;" parent="46" vertex="1">
                    <mxGeometry x="202.5" y="480" width="225" height="30" as="geometry"/>
                </mxCell>
                <mxCell id="37" value="&lt;div style=&quot;color: rgb(169, 183, 198); background-color: rgb(43, 43, 43); font-family: Consolas, &amp;quot;Courier New&amp;quot;, monospace; font-size: 14px; line-height: 19px;&quot;&gt;&lt;span style=&quot;color: #9876aa;&quot;&gt;hasParams&lt;/span&gt;&lt;/div&gt;" style="text;strokeColor=none;fillColor=none;align=left;verticalAlign=middle;spacingLeft=4;spacingRight=4;overflow=hidden;points=[[0,0.5],[1,0.5]];portConstraint=eastwest;rotatable=0;whiteSpace=wrap;html=1;container=0;" parent="46" vertex="1">
                    <mxGeometry x="610" y="150" width="180" height="30" as="geometry"/>
                </mxCell>
                <mxCell id="38" value="&lt;div style=&quot;color: rgb(169, 183, 198); background-color: rgb(43, 43, 43); font-family: Consolas, &amp;quot;Courier New&amp;quot;, monospace; font-size: 14px; line-height: 19px;&quot;&gt;&lt;span style=&quot;color: #9876aa;&quot;&gt;checkLibraryIndex&lt;/span&gt;&lt;/div&gt;" style="text;strokeColor=none;fillColor=none;align=left;verticalAlign=middle;spacingLeft=4;spacingRight=4;overflow=hidden;points=[[0,0.5],[1,0.5]];portConstraint=eastwest;rotatable=0;whiteSpace=wrap;html=1;container=0;" parent="46" vertex="1">
                    <mxGeometry x="610" y="180" width="180" height="30" as="geometry"/>
                </mxCell>
                <mxCell id="40" value="" style="endArrow=classic;html=1;exitX=1;exitY=0.5;exitDx=0;exitDy=0;entryX=0;entryY=0.5;entryDx=0;entryDy=0;" parent="46" source="17" target="38" edge="1">
                    <mxGeometry width="50" height="50" relative="1" as="geometry">
                        <mxPoint x="600" y="400" as="sourcePoint"/>
                        <mxPoint x="650" y="350" as="targetPoint"/>
                        <Array as="points">
                            <mxPoint x="510" y="285"/>
                            <mxPoint x="510" y="195"/>
                        </Array>
                    </mxGeometry>
                </mxCell>
                <mxCell id="39" value="&lt;div style=&quot;color: rgb(169, 183, 198); background-color: rgb(43, 43, 43); font-family: Consolas, &amp;quot;Courier New&amp;quot;, monospace; font-size: 14px; line-height: 19px;&quot;&gt;&lt;span style=&quot;color: #9876aa;&quot;&gt;checkSpecimenBarcode&lt;/span&gt;&lt;/div&gt;" style="text;strokeColor=none;fillColor=none;align=left;verticalAlign=middle;spacingLeft=4;spacingRight=4;overflow=hidden;points=[[0,0.5],[1,0.5]];portConstraint=eastwest;rotatable=0;whiteSpace=wrap;html=1;container=0;" parent="46" vertex="1">
                    <mxGeometry x="610" y="210" width="180" height="30" as="geometry"/>
                </mxCell>
                <mxCell id="41" value="&lt;div style=&quot;color: rgb(169, 183, 198); background-color: rgb(43, 43, 43); font-family: Consolas, &amp;quot;Courier New&amp;quot;, monospace; font-size: 14px; line-height: 19px;&quot;&gt;&lt;div style=&quot;line-height: 19px;&quot;&gt;&lt;span style=&quot;color: #9876aa;&quot;&gt;checkParallelBclPath&lt;/span&gt;&lt;/div&gt;&lt;/div&gt;" style="text;strokeColor=none;fillColor=none;align=left;verticalAlign=middle;spacingLeft=4;spacingRight=4;overflow=hidden;points=[[0,0.5],[1,0.5]];portConstraint=eastwest;rotatable=0;whiteSpace=wrap;html=1;container=0;" parent="46" vertex="1">
                    <mxGeometry x="610" y="240" width="180" height="30" as="geometry"/>
                </mxCell>
                <mxCell id="42" value="&lt;div style=&quot;color: rgb(169, 183, 198); background-color: rgb(43, 43, 43); font-family: Consolas, &amp;quot;Courier New&amp;quot;, monospace; font-size: 14px; line-height: 19px;&quot;&gt;&lt;div style=&quot;line-height: 19px;&quot;&gt;&lt;div style=&quot;line-height: 19px;&quot;&gt;&lt;span style=&quot;color: #9876aa;&quot;&gt;checkSeqModel&lt;/span&gt;&lt;/div&gt;&lt;/div&gt;&lt;/div&gt;" style="text;strokeColor=none;fillColor=none;align=left;verticalAlign=middle;spacingLeft=4;spacingRight=4;overflow=hidden;points=[[0,0.5],[1,0.5]];portConstraint=eastwest;rotatable=0;whiteSpace=wrap;html=1;container=0;" parent="46" vertex="1">
                    <mxGeometry x="610" y="270" width="180" height="30" as="geometry"/>
                </mxCell>
            </root>
        </mxGraphModel>
    </diagram>
</mxfile>